:SAMPLES-PER-SECOND 30
:FULLY-SPECIFIED
:DEGREES
47
root  -40.1461 20.0289 -2.25973 -87.3399 82.4914 -129.765
RightUpLeg  -52.6763 -6.17011 3.68027
RightLeg  120.56 7.33158 6.92274
RightFoot  -23.3874 -0.603016 -6.67168
RightToes  -4.65663e-010 -1.59028e-015 9.93923e-017
Spine  54.5729 1.56882 2.46853
Spine1  -16.6573 2.48057 11.74
HEad  -60.0515 7.5321 0.11816
LeftShoulder1  9.93923e-017 0 1.22299e-017
LeftArm  11.9352 -55.8545 -97.6145
LeftForeArm  8.22576 1.17307 4.15737
LeftHand  -2.52498 0.175414 37.7427
RightShoulder  1.98785e-016 -4.96962e-017 1.55301e-017
RightArm  -1.5314 9.09283 83.8478
RightForeArm  30.2675 5.35781 3.5844
RightHand  8.43254 -20.8874 -45.2504
LeftUpLeg  -31.1499 -16.5776 2.21847
LeftLeg  92.8293 -12.4341 -9.08898
LeftFoot  4.41059 -0.245075 1.64362
LeftToes  3.34876e-009 -9.68256e-011 -6.12847e-011
48
root  -39.4137 20.0186 -2.35326 -99.2883 80.2238 -137.323
RightUpLeg  -55.6824 -6.15979 5.41515
RightLeg  125.185 5.61023 8.34856
RightFoot  -25.0844 -0.66324 -6.29221
RightToes  -4.65663e-010 -1.59028e-015 9.93923e-017
Spine  57.8524 0.561177 3.99406
Spine1  -15.596 2.28526 12.9873
HEad  -60.5204 8.17361 -0.244745
LeftShoulder1  9.93923e-017 0 1.22299e-017
LeftArm  10.3742 -54.1654 -97.1617
LeftForeArm  9.03674 1.15496 4.14479
LeftHand  -2.68976 0.0133019 38.8049
RightShoulder  1.98785e-016 -4.96962e-017 1.55301e-017
RightArm  10.042 6.21645 82.3133
RightForeArm  19.0464 13.0951 -2.71718
RightHand  7.77153 -20.2148 -43.3979
LeftUpLeg  -23.9363 -18.6695 3.50533
LeftLeg  90.4409 -12.7012 -10.6673
LeftFoot  4.19778 -0.164733 1.14072
LeftToes  3.34876e-009 -9.68256e-011 -6.12847e-011
49
root  -38.6606 20.0293 -2.3935 -108.872 77.5742 -142.705
RightUpLeg  -58.3155 -6.47421 7.66413
RightLeg  127.749 5.17912 8.26669
RightFoot  -26.5635 -0.601409 -5.08979
RightToes  -4.65663e-010 -1.59028e-015 9.93923e-017
Spine  60.5681 -0.851684 5.55604
Spine1  -14.0837 1.74988 14.7311
HEad  -60.8383 8.4262 -0.344023
LeftShoulder1  9.93923e-017 0 1.22299e-017
LeftArm  8.53999 -52.7378 -96.5647
LeftForeArm  10.1035 1.12774 4.11991
LeftHand  -2.87037 -0.156649 39.9472
RightShoulder  1.98785e-016 -4.96962e-017 1.55301e-017
RightArm  25.4514 3.90142 81.2316
RightForeArm  -0.174074 17.8585 -14.1361
RightHand  7.10639 -19.5134 -41.3812
LeftUpLeg  -16.9081 -20.9886 4.85072
LeftLeg  87.8273 -13.132 -11.8453
LeftFoot  3.8974 -0.138167 0.981167
LeftToes  3.34876e-009 -9.68256e-011 -6.12847e-011
50
root  -37.9009 20.0704 -2.4426 -115.059 74.4266 -145.057
RightUpLeg  -60.1434 -6.77162 10.2631
RightLeg  128.378 6.11473 6.97467
RightFoot  -26.8689 -0.523697 -4.22741
RightToes  -4.65663e-010 -1.59028e-015 9.93923e-017
Spine  62.8272 -2.88951 7.76751
Spine1  -12.5946 1.11957 15.8759
HEad  -60.5051 8.49206 -0.215808
LeftShoulder1  9.93923e-017 0 1.22299e-017
LeftArm  7.33932 -51.4555 -96.4708
LeftForeArm  11.1124 1.07566 4.01411
LeftHand  -3.04082 -0.259912 41.3383
RightShoulder  1.98785e-016 -4.96962e-017 1.55301e-017
RightArm  29.5566 3.45999 80.1896
RightForeArm  -8.51764 19.3378 -20.8305
RightHand  6.59252 -18.9944 -39.5593
LeftUpLeg  -10.4462 -23.1558 6.54401
LeftLeg  84.9779 -13.6333 -12.1138
LeftFoot  3.69113 -0.111035 0.807416
LeftToes  3.34876e-009 -9.68256e-011 -6.12847e-011
51
root  -37.1397 20.0292 -2.45741 -119.022 71.5792 -146.092
RightUpLeg  -60.6345 -6.63496 12.4175
RightLeg  128.372 7.77074 4.97454
RightFoot  -24.8146 -0.941613 -9.22577
RightToes  -4.65663e-010 -1.59028e-015 9.93923e-017
Spine  64.1121 -5.07816 9.9086
Spine1  -11.3504 0.40243 16.0316
HEad  -59.8347 8.48896 0.0517938
LeftShoulder1  9.93923e-017 0 1.22299e-017
LeftArm  6.58137 -49.8771 -96.3377
LeftForeArm  11.9843 0.967919 3.72261
LeftHand  -3.16532 -0.314598 42.4585
RightShoulder  1.98785e-016 -4.96962e-017 1.55301e-017
RightArm  26.7402 4.91653 79.3715
RightForeArm  -7.84199 20.4059 -22.5992
RightHand  6.28106 -18.7026 -38.2816
LeftUpLeg  -5.11534 -24.7836 8.12892
LeftLeg  82.055 -13.9926 -11.0827
LeftFoot  3.85842 -0.0229927 0.221994
LeftToes  3.34876e-009 -9.68256e-011 -6.12847e-011
52
root  -36.3605 19.849 -2.36084 -122.374 69.8404 -147.866
RightUpLeg  -60.512 -6.14176 13.4438
RightLeg  129.03 8.91433 3.54583
RightFoot  -21.9088 -1.14247 -14.8868
RightToes  -4.65663e-010 -1.59028e-015 9.93923e-017
Spine  64.1284 -6.58682 10.9711
Spine1  -10.3989 -0.419333 15.8883
HEad  -59.3009 8.39292 0.440377
LeftShoulder1  9.93923e-017 0 1.22299e-017
LeftArm  5.58577 -47.7058 -95.8501
LeftForeArm  13.1679 0.827996 3.35012
LeftHand  -3.28056 -0.392825 43.2879
RightShoulder  1.98785e-016 -4.96962e-017 1.55301e-017
RightArm  23.9189 7.69044 78.7924
RightForeArm  -5.40645 21.5758 -23.4359
RightHand  6.02315 -18.4033 -37.3699
LeftUpLeg  -1.31751 -25.5979 9.08344
LeftLeg  79.2497 -14.0759 -9.129
LeftFoot  4.60549 0.11461 -0.63722
LeftToes  3.34876e-009 -9.68256e-011 -6.12847e-011
